<svg width="35" height="35" viewBox="0 0 35 35" fill="none" xmlns="http://www.w3.org/2000/svg">
<path d="M11.7067 27.166C11.7067 27.3027 11.5444 27.4121 11.3397 27.4121C11.1069 27.4326 10.9446 27.3232 10.9446 27.166C10.9446 27.0293 11.1069 26.9199 11.3115 26.9199C11.5232 26.8994 11.7067 27.0088 11.7067 27.166ZM9.5121 26.8584C9.4627 26.9951 9.60383 27.1523 9.81552 27.1934C9.99899 27.2617 10.2107 27.1934 10.253 27.0566C10.2954 26.9199 10.1613 26.7627 9.9496 26.7012C9.76613 26.6533 9.56149 26.7217 9.5121 26.8584ZM12.631 26.7422C12.4264 26.79 12.2853 26.9199 12.3065 27.0771C12.3276 27.2139 12.5111 27.3027 12.7228 27.2549C12.9274 27.207 13.0685 27.0771 13.0474 26.9404C13.0262 26.8105 12.8357 26.7217 12.631 26.7422ZM17.2742 0.546875C7.4869 0.546875 0 7.74512 0 17.2266C0 24.8076 4.9254 31.2949 11.9607 33.5781C12.8639 33.7354 13.1815 33.1953 13.1815 32.751C13.1815 32.3271 13.1603 29.9893 13.1603 28.5537C13.1603 28.5537 8.22077 29.5791 7.18347 26.5166C7.18347 26.5166 6.37903 24.5273 5.22177 24.0146C5.22177 24.0146 3.60585 22.9414 5.33468 22.9619C5.33468 22.9619 7.09173 23.0986 8.05847 24.7256C9.60383 27.3643 12.1935 26.6055 13.2026 26.1543C13.3649 25.0605 13.8236 24.3018 14.3317 23.8506C10.3871 23.4268 6.40726 22.873 6.40726 16.2969C6.40726 14.417 6.94355 13.4736 8.07258 12.2705C7.88911 11.8262 7.28931 9.99414 8.25605 7.62891C9.73085 7.18457 13.125 9.47461 13.125 9.47461C14.5363 9.0918 16.0534 8.89356 17.5565 8.89356C19.0595 8.89356 20.5766 9.0918 21.9879 9.47461C21.9879 9.47461 25.3821 7.17773 26.8569 7.62891C27.8236 10.001 27.2238 11.8262 27.0403 12.2705C28.1694 13.4805 28.8609 14.4238 28.8609 16.2969C28.8609 22.8936 24.7046 23.4199 20.7601 23.8506C21.4093 24.3906 21.9597 25.416 21.9597 27.0225C21.9597 29.3262 21.9385 32.1768 21.9385 32.7373C21.9385 33.1816 22.2631 33.7217 23.1593 33.5645C30.2157 31.2949 35 24.8076 35 17.2266C35 7.74512 27.0615 0.546875 17.2742 0.546875ZM6.85887 24.124C6.76714 24.1924 6.78831 24.3496 6.90827 24.4795C7.02117 24.5889 7.18347 24.6367 7.2752 24.5479C7.36694 24.4795 7.34577 24.3223 7.22581 24.1924C7.1129 24.083 6.9506 24.0352 6.85887 24.124ZM6.09677 23.5703C6.04738 23.6592 6.11794 23.7686 6.25907 23.8369C6.37198 23.9053 6.5131 23.8848 6.5625 23.7891C6.6119 23.7002 6.54133 23.5908 6.4002 23.5225C6.25907 23.4814 6.14617 23.502 6.09677 23.5703ZM8.38306 26.0039C8.27016 26.0928 8.3125 26.2979 8.4748 26.4277C8.6371 26.585 8.84173 26.6055 8.93347 26.4961C9.0252 26.4072 8.98286 26.2021 8.84173 26.0723C8.68649 25.915 8.4748 25.8945 8.38306 26.0039ZM7.57863 24.999C7.46573 25.0674 7.46573 25.2451 7.57863 25.4023C7.69153 25.5596 7.88206 25.6279 7.97379 25.5596C8.08669 25.4707 8.08669 25.293 7.97379 25.1357C7.875 24.9785 7.69153 24.9102 7.57863 24.999Z" fill="black"/>
</svg>
