<svg width="299" height="113" viewBox="0 0 299 113" fill="none" xmlns="http://www.w3.org/2000/svg">
<g clip-path="url(#clip0)">
<path d="M9.9568 57.9317L67.3664 70.5211L116.385 41.539L58.9751 28.9504L9.9568 57.9317Z" fill="#11698E"/>
<path d="M116.385 41.539L58.9753 28.9504C58.9753 28.9504 55.5144 30.996 54.8901 31.365C61.3111 32.7733 91.0392 39.2925 102.753 41.8609C104.594 42.2646 105.02 44.3808 103.448 45.3102L99.1534 47.8498L98.8791 47.73C81.4547 40.1252 62.636 42.4359 61.8432 42.5384L61.7211 42.5534L61.6004 42.5751C60.8153 42.7163 42.2267 46.1666 28.8309 58.5193L27.3099 59.9217L27.6934 61.8213C40.9262 64.7232 67.3665 70.5211 67.3665 70.5211L101.241 50.4931L116.385 41.539Z" fill="#19456B"/>
<path d="M70.0365 83.7484C79.8307 76.6546 101.226 72.5152 101.226 72.5152L96.9155 51.1623C80.5279 44.0097 62.4843 46.3345 62.4843 46.3345C62.4843 46.3345 44.6186 49.5407 32.0199 61.1579L36.3299 82.5101C36.3301 82.5108 58.0555 80.0086 70.0365 83.7484Z" fill="#11698E"/>
<path d="M93.3506 66.6523C93.7325 68.5439 92.4559 70.3917 90.3597 70.9746C84.1386 72.7023 76.3383 75.3085 70.928 78.6507C69.8464 79.3192 68.4863 79.531 67.2074 79.226C54.9645 76.3043 35.5291 78.5427 35.5291 78.5427L36.33 82.5109C36.33 82.5109 58.0555 80.0086 70.0365 83.7484C79.8307 76.6547 101.225 72.5153 101.225 72.5153L96.9146 51.1625C94.5266 50.1202 92.1045 49.2807 89.7076 48.6046L93.3506 66.6523Z" fill="#19456B"/>
<path d="M92.2047 66.5009C92.6048 68.4832 91.0893 70.3739 88.8192 70.7236C86.5499 71.0731 84.3855 69.7492 83.9853 67.7669C83.5851 65.784 85.1006 63.8933 87.3699 63.5437C89.64 63.1941 91.8044 64.518 92.2047 66.5009Z" fill="#FFD664"/>
<path d="M89.1238 63.6029C89.4481 64.0172 89.6809 64.4953 89.7872 65.0216C90.1874 67.0046 88.6719 68.8953 86.4026 69.2448C85.7993 69.3377 85.2054 69.3102 84.6488 69.1856C85.5455 70.3325 87.1524 70.9803 88.82 70.7234C91.0901 70.3738 92.6057 68.4831 92.2054 66.5001C91.9107 65.0442 90.664 63.946 89.1238 63.6029Z" fill="#F9C646"/>
<path d="M94.8365 79.539L88.8192 70.7235L86.6164 80.8052L94.8365 79.539Z" fill="#FFD664"/>
<path d="M116.786 40.1433L59.3767 27.5547C58.9216 27.4544 58.4405 27.5285 58.0522 27.7587L38.1787 39.5084C37.4257 39.9537 37.2283 40.8478 37.7382 41.5063C38.2482 42.1648 39.2726 42.3371 40.0264 41.8917L59.2885 30.5029L79.9415 35.0315L82.0487 45.4704C71.234 43.79 62.6303 44.8612 62.2435 44.911C62.2132 44.9149 62.1831 44.9196 62.1531 44.9249C61.7425 44.998 51.988 46.7921 41.678 52.4671C37.5648 54.73 33.913 57.3212 30.8243 60.1679C30.5931 60.3814 30.4468 60.6481 30.395 60.9304L13.9313 57.3196L33.6382 45.6679C34.392 45.2224 34.5894 44.3283 34.0786 43.67C33.5687 43.0114 32.5443 42.8391 31.7913 43.2845L9.03298 56.7401C8.49497 57.0581 8.22166 57.6232 8.33438 58.1817C8.44725 58.7408 8.92519 59.1895 9.55527 59.3276L30.9235 64.0143L32.2934 70.8008C32.4514 71.5836 33.3066 72.106 34.2019 71.9681C35.0981 71.8301 35.6963 71.0838 35.5383 70.301L33.989 62.6257C33.9888 62.625 33.9885 62.6235 33.9884 62.6228L33.7879 61.6295C36.5643 59.1595 39.8056 56.8982 43.4343 54.9021C52.8701 49.7084 62.0527 47.8894 62.7713 47.7523C63.4849 47.6673 72.2079 46.696 82.6599 48.4986L85.5027 62.5818C83.2542 63.5597 81.9049 65.7481 82.3629 68.0168C82.7836 70.1014 84.6111 71.6663 86.8422 72.0982L86.2341 74.8815C79.0554 77.1351 73.5025 79.57 69.7104 82.1331C59.192 79.1982 42.8195 80.4328 37.683 80.9218L36.8805 76.9463C36.7225 76.1635 35.8673 75.6411 34.972 75.779C34.0759 75.917 33.4776 76.6633 33.6357 77.4461L34.7084 82.7606C34.8614 83.5186 35.671 84.0375 36.5455 83.9374C36.7588 83.9129 58.0182 81.5254 69.4826 85.1036C69.7561 85.1889 70.0456 85.2083 70.3234 85.1655C70.6003 85.1229 70.8648 85.0181 71.089 84.8554C74.2396 82.572 79.1931 80.2836 85.5129 78.1813L84.9993 80.5349C84.8973 80.9997 85.0637 81.4783 85.4441 81.8154C85.8243 82.1517 86.3702 82.3043 86.9032 82.2222L95.1233 80.9561C95.6571 80.8738 96.1095 80.5675 96.3351 80.1379C96.5605 79.7075 96.5296 79.2081 96.2525 78.8016L94.1051 75.6558C98.4306 74.5344 101.547 73.9263 101.582 73.9193C102.443 73.7527 103.002 73.0231 102.849 72.2644L101.776 66.95C101.618 66.1679 100.763 65.6447 99.8674 65.7826C98.9713 65.9207 98.3732 66.6677 98.5311 67.4498L99.334 71.4274C97.8375 71.7498 95.3562 72.3136 92.3646 73.1068L91.2166 71.4244C93.1433 70.3521 94.2486 68.3355 93.8278 66.2509C93.3697 63.9814 91.2451 62.3289 88.7484 62.0819L86.1481 49.1995C89.442 49.9515 92.5576 50.9314 95.4394 52.1335L95.6399 53.1268L95.6405 53.1297L97.1898 60.805C97.3478 61.5878 98.2022 62.1104 99.0983 61.9724C99.9945 61.8343 100.593 61.088 100.435 60.3052L99.0648 53.5187L117.309 42.7306C117.847 42.4126 118.121 41.8482 118.008 41.289C117.895 40.7306 117.416 40.2814 116.786 40.1433ZM88.6822 79.0255L89.6245 74.7136L92.1982 78.484L88.6822 79.0255ZM90.5821 66.7508C90.8239 67.9488 89.9052 69.0949 88.533 69.3063C87.1616 69.5175 85.8495 68.715 85.6077 67.517C85.3657 66.3183 86.2845 65.1722 87.6559 64.961C89.0281 64.7496 90.3401 65.5521 90.5821 66.7508ZM98.3531 50.4631C98.1939 50.2132 97.952 50.0063 97.6511 49.8748C93.9425 48.2567 89.8643 46.9917 85.5215 46.0999L83.4422 35.7991L112.41 42.1512L98.3531 50.4631Z" fill="black"/>
</g>
<path d="M155.628 77H151.105L133.925 50.7031V77H129.402V42.875H133.925L151.152 69.2891V42.875H155.628V77ZM161.792 64.0859C161.792 61.6016 162.277 59.3672 163.245 57.3828C164.23 55.3984 165.589 53.8672 167.324 52.7891C169.074 51.7109 171.066 51.1719 173.3 51.1719C176.753 51.1719 179.542 52.3672 181.667 54.7578C183.808 57.1484 184.878 60.3281 184.878 64.2969V64.6016C184.878 67.0703 184.402 69.2891 183.449 71.2578C182.511 73.2109 181.159 74.7344 179.394 75.8281C177.644 76.9219 175.628 77.4688 173.347 77.4688C169.909 77.4688 167.12 76.2734 164.98 73.8828C162.855 71.4922 161.792 68.3281 161.792 64.3906V64.0859ZM166.152 64.6016C166.152 67.4141 166.8 69.6719 168.097 71.375C169.409 73.0781 171.159 73.9297 173.347 73.9297C175.55 73.9297 177.3 73.0703 178.597 71.3516C179.894 69.6172 180.542 67.1953 180.542 64.0859C180.542 61.3047 179.878 59.0547 178.55 57.3359C177.238 55.6016 175.488 54.7344 173.3 54.7344C171.159 54.7344 169.433 55.5859 168.12 57.2891C166.808 58.9922 166.152 61.4297 166.152 64.6016ZM196.199 45.5V51.6406H200.933V54.9922H196.199V70.7188C196.199 71.7344 196.409 72.5 196.831 73.0156C197.253 73.5156 197.972 73.7656 198.988 73.7656C199.488 73.7656 200.175 73.6719 201.05 73.4844V77C199.909 77.3125 198.8 77.4688 197.722 77.4688C195.784 77.4688 194.324 76.8828 193.339 75.7109C192.355 74.5391 191.863 72.875 191.863 70.7188V54.9922H187.245V51.6406H191.863V45.5H196.199ZM221.675 77C221.425 76.5 221.222 75.6094 221.066 74.3281C219.05 76.4219 216.644 77.4688 213.847 77.4688C211.347 77.4688 209.292 76.7656 207.683 75.3594C206.089 73.9375 205.292 72.1406 205.292 69.9688C205.292 67.3281 206.292 65.2812 208.292 63.8281C210.308 62.3594 213.136 61.625 216.777 61.625H220.995V59.6328C220.995 58.1172 220.542 56.9141 219.636 56.0234C218.73 55.1172 217.394 54.6641 215.628 54.6641C214.081 54.6641 212.784 55.0547 211.738 55.8359C210.691 56.6172 210.167 57.5625 210.167 58.6719H205.808C205.808 57.4062 206.253 56.1875 207.144 55.0156C208.05 53.8281 209.269 52.8906 210.8 52.2031C212.347 51.5156 214.042 51.1719 215.886 51.1719C218.808 51.1719 221.097 51.9062 222.753 53.375C224.409 54.8281 225.269 56.8359 225.331 59.3984V71.0703C225.331 73.3984 225.628 75.25 226.222 76.625V77H221.675ZM214.48 73.6953C215.839 73.6953 217.128 73.3438 218.347 72.6406C219.566 71.9375 220.449 71.0234 220.995 69.8984V64.6953H217.597C212.284 64.6953 209.628 66.25 209.628 69.3594C209.628 70.7188 210.081 71.7812 210.988 72.5469C211.894 73.3125 213.058 73.6953 214.48 73.6953ZM218.488 41H223.738L217.456 47.8906H213.964L218.488 41ZM240.12 71.1172L246.402 51.6406H250.831L241.738 77H238.433L229.245 51.6406H233.675L240.12 71.1172ZM265.199 77.4688C261.761 77.4688 258.964 76.3438 256.808 74.0938C254.652 71.8281 253.574 68.8047 253.574 65.0234V64.2266C253.574 61.7109 254.05 59.4688 255.003 57.5C255.972 55.5156 257.316 53.9688 259.034 52.8594C260.769 51.7344 262.644 51.1719 264.659 51.1719C267.956 51.1719 270.519 52.2578 272.347 54.4297C274.175 56.6016 275.089 59.7109 275.089 63.7578V65.5625H257.909C257.972 68.0625 258.699 70.0859 260.089 71.6328C261.495 73.1641 263.277 73.9297 265.433 73.9297C266.964 73.9297 268.261 73.6172 269.324 72.9922C270.386 72.3672 271.316 71.5391 272.113 70.5078L274.761 72.5703C272.636 75.8359 269.449 77.4688 265.199 77.4688ZM264.659 54.7344C262.909 54.7344 261.441 55.375 260.253 56.6562C259.066 57.9219 258.331 59.7031 258.05 62H270.753V61.6719C270.628 59.4688 270.034 57.7656 268.972 56.5625C267.909 55.3438 266.472 54.7344 264.659 54.7344ZM284.839 77H280.503V41H284.839V77Z" fill="#F8F1F1"/>
<defs>
<clipPath id="clip0">
<rect width="110.967" height="97.7354" fill="white" transform="matrix(0.988345 -0.152231 0.197865 0.980229 0 16.8927)"/>
</clipPath>
</defs>
</svg>
