<svg width="35" height="35" viewBox="0 0 35 35" fill="none" xmlns="http://www.w3.org/2000/svg">
<path d="M35 17.5C35 26.8652 27.1673 34.4531 17.5 34.4531C15.6935 34.4531 13.9577 34.1865 12.3206 33.6943C13.0333 32.5664 14.0988 30.7207 14.494 29.251C14.7056 28.458 15.5806 25.2178 15.5806 25.2178C16.1522 26.2705 17.8175 27.166 19.5887 27.166C24.8669 27.166 28.6704 22.4629 28.6704 16.6182C28.6704 11.0195 23.9496 6.8291 17.881 6.8291C10.3306 6.8291 6.31552 11.7373 6.31552 17.0898C6.31552 19.5781 7.68448 22.6748 9.86492 23.6592C10.1966 23.8096 10.373 23.7412 10.4506 23.4336C10.5071 23.2012 10.8034 22.0459 10.9375 21.5127C10.9798 21.3418 10.9587 21.1914 10.8175 21.0273C10.1048 20.1729 9.52621 18.6143 9.52621 17.1582C9.52621 13.4189 12.4476 9.80273 17.4294 9.80273C21.7268 9.80273 24.7399 12.6396 24.7399 16.7002C24.7399 21.2871 22.3478 24.4658 19.2359 24.4658C17.5212 24.4658 16.2298 23.0918 16.6462 21.4033C17.1401 19.3867 18.0927 17.2129 18.0927 15.7568C18.0927 14.458 17.373 13.3711 15.877 13.3711C14.12 13.3711 12.7087 15.1279 12.7087 17.4863C12.7087 18.9902 13.2308 20.002 13.2308 20.002C13.2308 20.002 11.502 27.0977 11.1845 28.4238C10.8317 29.8867 10.9728 31.9512 11.121 33.291C4.61492 30.8232 0 24.6846 0 17.5C0 8.13477 7.83266 0.546875 17.5 0.546875C27.1673 0.546875 35 8.13477 35 17.5Z" fill="black"/>
</svg>
